<mxfile host="Electron" modified="2023-07-18T00:02:47.298Z" agent="Mozilla/5.0 (Windows NT 10.0; Win64; x64) AppleWebKit/537.36 (KHTML, like Gecko) draw.io/21.5.1 Chrome/112.0.5615.204 Electron/24.6.0 Safari/537.36" etag="mHZ-4bu2c8JoCuUxgyb2" version="21.5.1" type="device">
  <diagram name="Page-1" id="jpy52TtLRWP929Qp4Aha">
    <mxGraphModel dx="792" dy="845" grid="1" gridSize="10" guides="1" tooltips="1" connect="1" arrows="1" fold="1" page="1" pageScale="1" pageWidth="827" pageHeight="1169" math="0" shadow="0">
      <root>
        <mxCell id="0" />
        <mxCell id="1" parent="0" />
        <mxCell id="TWiz8xH68qqZHKl_54iG-1" value="Development Team" style="rounded=0;whiteSpace=wrap;html=1;verticalAlign=top;fontStyle=1;fontSize=15;" vertex="1" parent="1">
          <mxGeometry x="160" y="180" width="146" height="250" as="geometry" />
        </mxCell>
        <mxCell id="TWiz8xH68qqZHKl_54iG-15" style="edgeStyle=orthogonalEdgeStyle;rounded=0;orthogonalLoop=1;jettySize=auto;html=1;entryX=0;entryY=0.25;entryDx=0;entryDy=0;" edge="1" parent="1" source="TWiz8xH68qqZHKl_54iG-3" target="TWiz8xH68qqZHKl_54iG-6">
          <mxGeometry relative="1" as="geometry" />
        </mxCell>
        <mxCell id="TWiz8xH68qqZHKl_54iG-3" value="Person A" style="rounded=0;whiteSpace=wrap;html=1;" vertex="1" parent="1">
          <mxGeometry x="173" y="215" width="120" height="60" as="geometry" />
        </mxCell>
        <mxCell id="TWiz8xH68qqZHKl_54iG-13" style="edgeStyle=orthogonalEdgeStyle;rounded=0;orthogonalLoop=1;jettySize=auto;html=1;" edge="1" parent="1" source="TWiz8xH68qqZHKl_54iG-4" target="TWiz8xH68qqZHKl_54iG-6">
          <mxGeometry relative="1" as="geometry" />
        </mxCell>
        <mxCell id="TWiz8xH68qqZHKl_54iG-4" value="Person C" style="rounded=0;whiteSpace=wrap;html=1;" vertex="1" parent="1">
          <mxGeometry x="173" y="285" width="120" height="60" as="geometry" />
        </mxCell>
        <mxCell id="TWiz8xH68qqZHKl_54iG-14" style="edgeStyle=orthogonalEdgeStyle;rounded=0;orthogonalLoop=1;jettySize=auto;html=1;entryX=0;entryY=0.75;entryDx=0;entryDy=0;" edge="1" parent="1" source="TWiz8xH68qqZHKl_54iG-5" target="TWiz8xH68qqZHKl_54iG-6">
          <mxGeometry relative="1" as="geometry" />
        </mxCell>
        <mxCell id="TWiz8xH68qqZHKl_54iG-5" value="Person B" style="rounded=0;whiteSpace=wrap;html=1;" vertex="1" parent="1">
          <mxGeometry x="173" y="355" width="120" height="60" as="geometry" />
        </mxCell>
        <mxCell id="TWiz8xH68qqZHKl_54iG-16" style="edgeStyle=orthogonalEdgeStyle;rounded=0;orthogonalLoop=1;jettySize=auto;html=1;entryX=0;entryY=0.5;entryDx=0;entryDy=0;entryPerimeter=0;" edge="1" parent="1" source="TWiz8xH68qqZHKl_54iG-6" target="TWiz8xH68qqZHKl_54iG-12">
          <mxGeometry relative="1" as="geometry" />
        </mxCell>
        <mxCell id="TWiz8xH68qqZHKl_54iG-6" value="Single Code" style="whiteSpace=wrap;html=1;" vertex="1" parent="1">
          <mxGeometry x="360" y="285" width="120" height="60" as="geometry" />
        </mxCell>
        <mxCell id="TWiz8xH68qqZHKl_54iG-11" value="Production" style="sketch=0;outlineConnect=0;fontColor=#232F3E;gradientColor=none;fillColor=#232F3D;strokeColor=none;dashed=0;verticalLabelPosition=bottom;verticalAlign=top;align=center;html=1;fontSize=12;fontStyle=0;aspect=fixed;pointerEvents=1;shape=mxgraph.aws4.traditional_server;" vertex="1" parent="1">
          <mxGeometry x="700" y="276" width="45" height="78" as="geometry" />
        </mxCell>
        <mxCell id="TWiz8xH68qqZHKl_54iG-17" style="edgeStyle=orthogonalEdgeStyle;rounded=0;orthogonalLoop=1;jettySize=auto;html=1;" edge="1" parent="1" source="TWiz8xH68qqZHKl_54iG-12" target="TWiz8xH68qqZHKl_54iG-11">
          <mxGeometry relative="1" as="geometry" />
        </mxCell>
        <mxCell id="TWiz8xH68qqZHKl_54iG-12" value="Deployment pipeline" style="sketch=0;points=[[0,0,0],[0.25,0,0],[0.5,0,0],[0.75,0,0],[1,0,0],[0,1,0],[0.25,1,0],[0.5,1,0],[0.75,1,0],[1,1,0],[0,0.25,0],[0,0.5,0],[0,0.75,0],[1,0.25,0],[1,0.5,0],[1,0.75,0]];gradientDirection=north;outlineConnect=0;fontColor=#232F3E;gradientColor=#505863;fillColor=#1E262E;strokeColor=#ffffff;dashed=0;verticalLabelPosition=bottom;verticalAlign=top;align=center;html=1;fontSize=12;fontStyle=0;aspect=fixed;shape=mxgraph.aws4.resourceIcon;resIcon=mxgraph.aws4.general;" vertex="1" parent="1">
          <mxGeometry x="537" y="276" width="78" height="78" as="geometry" />
        </mxCell>
        <mxCell id="TWiz8xH68qqZHKl_54iG-18" value="Development Team" style="rounded=0;whiteSpace=wrap;html=1;verticalAlign=top;fontStyle=1;fontSize=15;" vertex="1" parent="1">
          <mxGeometry x="160" y="500" width="146" height="260" as="geometry" />
        </mxCell>
        <mxCell id="TWiz8xH68qqZHKl_54iG-32" style="edgeStyle=orthogonalEdgeStyle;rounded=0;orthogonalLoop=1;jettySize=auto;html=1;" edge="1" parent="1" source="TWiz8xH68qqZHKl_54iG-20" target="TWiz8xH68qqZHKl_54iG-31">
          <mxGeometry relative="1" as="geometry" />
        </mxCell>
        <mxCell id="TWiz8xH68qqZHKl_54iG-20" value="Billing Team" style="rounded=0;whiteSpace=wrap;html=1;" vertex="1" parent="1">
          <mxGeometry x="173" y="535" width="120" height="60" as="geometry" />
        </mxCell>
        <mxCell id="TWiz8xH68qqZHKl_54iG-21" style="edgeStyle=orthogonalEdgeStyle;rounded=0;orthogonalLoop=1;jettySize=auto;html=1;" edge="1" parent="1" source="TWiz8xH68qqZHKl_54iG-22" target="TWiz8xH68qqZHKl_54iG-26">
          <mxGeometry relative="1" as="geometry" />
        </mxCell>
        <mxCell id="TWiz8xH68qqZHKl_54iG-22" value="Passenget Team" style="rounded=0;whiteSpace=wrap;html=1;" vertex="1" parent="1">
          <mxGeometry x="173" y="612" width="120" height="60" as="geometry" />
        </mxCell>
        <mxCell id="TWiz8xH68qqZHKl_54iG-33" style="edgeStyle=orthogonalEdgeStyle;rounded=0;orthogonalLoop=1;jettySize=auto;html=1;" edge="1" parent="1" source="TWiz8xH68qqZHKl_54iG-24" target="TWiz8xH68qqZHKl_54iG-30">
          <mxGeometry relative="1" as="geometry" />
        </mxCell>
        <mxCell id="TWiz8xH68qqZHKl_54iG-24" value="Driver Team" style="rounded=0;whiteSpace=wrap;html=1;" vertex="1" parent="1">
          <mxGeometry x="173" y="690" width="120" height="60" as="geometry" />
        </mxCell>
        <mxCell id="TWiz8xH68qqZHKl_54iG-46" style="edgeStyle=orthogonalEdgeStyle;rounded=0;orthogonalLoop=1;jettySize=auto;html=1;entryX=0;entryY=0.5;entryDx=0;entryDy=0;entryPerimeter=0;" edge="1" parent="1" source="TWiz8xH68qqZHKl_54iG-26" target="TWiz8xH68qqZHKl_54iG-35">
          <mxGeometry relative="1" as="geometry" />
        </mxCell>
        <mxCell id="TWiz8xH68qqZHKl_54iG-26" value="Single Code" style="whiteSpace=wrap;html=1;" vertex="1" parent="1">
          <mxGeometry x="360" y="619.5" width="120" height="45" as="geometry" />
        </mxCell>
        <mxCell id="TWiz8xH68qqZHKl_54iG-27" value="Product Service" style="sketch=0;outlineConnect=0;fontColor=#232F3E;gradientColor=none;fillColor=#232F3D;strokeColor=none;dashed=0;verticalLabelPosition=bottom;verticalAlign=top;align=center;html=1;fontSize=12;fontStyle=0;aspect=fixed;pointerEvents=1;shape=mxgraph.aws4.traditional_server;" vertex="1" parent="1">
          <mxGeometry x="700" y="540" width="28.85" height="50" as="geometry" />
        </mxCell>
        <mxCell id="TWiz8xH68qqZHKl_54iG-45" style="edgeStyle=orthogonalEdgeStyle;rounded=0;orthogonalLoop=1;jettySize=auto;html=1;entryX=0;entryY=0.5;entryDx=0;entryDy=0;entryPerimeter=0;" edge="1" parent="1" source="TWiz8xH68qqZHKl_54iG-30" target="TWiz8xH68qqZHKl_54iG-37">
          <mxGeometry relative="1" as="geometry" />
        </mxCell>
        <mxCell id="TWiz8xH68qqZHKl_54iG-30" value="Single Code" style="whiteSpace=wrap;html=1;" vertex="1" parent="1">
          <mxGeometry x="360" y="697.5" width="120" height="45" as="geometry" />
        </mxCell>
        <mxCell id="TWiz8xH68qqZHKl_54iG-47" style="edgeStyle=orthogonalEdgeStyle;rounded=0;orthogonalLoop=1;jettySize=auto;html=1;entryX=0;entryY=0.5;entryDx=0;entryDy=0;entryPerimeter=0;" edge="1" parent="1" source="TWiz8xH68qqZHKl_54iG-31" target="TWiz8xH68qqZHKl_54iG-36">
          <mxGeometry relative="1" as="geometry" />
        </mxCell>
        <mxCell id="TWiz8xH68qqZHKl_54iG-31" value="Single Code" style="whiteSpace=wrap;html=1;" vertex="1" parent="1">
          <mxGeometry x="360" y="542.5" width="120" height="45" as="geometry" />
        </mxCell>
        <mxCell id="TWiz8xH68qqZHKl_54iG-42" style="edgeStyle=orthogonalEdgeStyle;rounded=0;orthogonalLoop=1;jettySize=auto;html=1;" edge="1" parent="1" source="TWiz8xH68qqZHKl_54iG-35" target="TWiz8xH68qqZHKl_54iG-40">
          <mxGeometry relative="1" as="geometry" />
        </mxCell>
        <mxCell id="TWiz8xH68qqZHKl_54iG-35" value="Deployment pipeline" style="sketch=0;points=[[0,0,0],[0.25,0,0],[0.5,0,0],[0.75,0,0],[1,0,0],[0,1,0],[0.25,1,0],[0.5,1,0],[0.75,1,0],[1,1,0],[0,0.25,0],[0,0.5,0],[0,0.75,0],[1,0.25,0],[1,0.5,0],[1,0.75,0]];gradientDirection=north;outlineConnect=0;fontColor=#232F3E;gradientColor=#505863;fillColor=#1E262E;strokeColor=#ffffff;dashed=0;verticalLabelPosition=bottom;verticalAlign=top;align=center;html=1;fontSize=12;fontStyle=0;aspect=fixed;shape=mxgraph.aws4.resourceIcon;resIcon=mxgraph.aws4.general;" vertex="1" parent="1">
          <mxGeometry x="548.25" y="625.75" width="32.5" height="32.5" as="geometry" />
        </mxCell>
        <mxCell id="TWiz8xH68qqZHKl_54iG-38" style="edgeStyle=orthogonalEdgeStyle;rounded=0;orthogonalLoop=1;jettySize=auto;html=1;" edge="1" parent="1" source="TWiz8xH68qqZHKl_54iG-36" target="TWiz8xH68qqZHKl_54iG-27">
          <mxGeometry relative="1" as="geometry" />
        </mxCell>
        <mxCell id="TWiz8xH68qqZHKl_54iG-36" value="Deployment pipeline" style="sketch=0;points=[[0,0,0],[0.25,0,0],[0.5,0,0],[0.75,0,0],[1,0,0],[0,1,0],[0.25,1,0],[0.5,1,0],[0.75,1,0],[1,1,0],[0,0.25,0],[0,0.5,0],[0,0.75,0],[1,0.25,0],[1,0.5,0],[1,0.75,0]];gradientDirection=north;outlineConnect=0;fontColor=#232F3E;gradientColor=#505863;fillColor=#1E262E;strokeColor=#ffffff;dashed=0;verticalLabelPosition=bottom;verticalAlign=top;align=center;html=1;fontSize=12;fontStyle=0;aspect=fixed;shape=mxgraph.aws4.resourceIcon;resIcon=mxgraph.aws4.general;" vertex="1" parent="1">
          <mxGeometry x="548.25" y="548.75" width="32.5" height="32.5" as="geometry" />
        </mxCell>
        <mxCell id="TWiz8xH68qqZHKl_54iG-43" style="edgeStyle=orthogonalEdgeStyle;rounded=0;orthogonalLoop=1;jettySize=auto;html=1;" edge="1" parent="1" source="TWiz8xH68qqZHKl_54iG-37" target="TWiz8xH68qqZHKl_54iG-41">
          <mxGeometry relative="1" as="geometry" />
        </mxCell>
        <mxCell id="TWiz8xH68qqZHKl_54iG-37" value="Deployment pipeline" style="sketch=0;points=[[0,0,0],[0.25,0,0],[0.5,0,0],[0.75,0,0],[1,0,0],[0,1,0],[0.25,1,0],[0.5,1,0],[0.75,1,0],[1,1,0],[0,0.25,0],[0,0.5,0],[0,0.75,0],[1,0.25,0],[1,0.5,0],[1,0.75,0]];gradientDirection=north;outlineConnect=0;fontColor=#232F3E;gradientColor=#505863;fillColor=#1E262E;strokeColor=#ffffff;dashed=0;verticalLabelPosition=bottom;verticalAlign=top;align=center;html=1;fontSize=12;fontStyle=0;aspect=fixed;shape=mxgraph.aws4.resourceIcon;resIcon=mxgraph.aws4.general;" vertex="1" parent="1">
          <mxGeometry x="548.25" y="703.75" width="32.5" height="32.5" as="geometry" />
        </mxCell>
        <mxCell id="TWiz8xH68qqZHKl_54iG-40" value="Product Service" style="sketch=0;outlineConnect=0;fontColor=#232F3E;gradientColor=none;fillColor=#232F3D;strokeColor=none;dashed=0;verticalLabelPosition=bottom;verticalAlign=top;align=center;html=1;fontSize=12;fontStyle=0;aspect=fixed;pointerEvents=1;shape=mxgraph.aws4.traditional_server;" vertex="1" parent="1">
          <mxGeometry x="700" y="617" width="28.85" height="50" as="geometry" />
        </mxCell>
        <mxCell id="TWiz8xH68qqZHKl_54iG-41" value="Product Service" style="sketch=0;outlineConnect=0;fontColor=#232F3E;gradientColor=none;fillColor=#232F3D;strokeColor=none;dashed=0;verticalLabelPosition=bottom;verticalAlign=top;align=center;html=1;fontSize=12;fontStyle=0;aspect=fixed;pointerEvents=1;shape=mxgraph.aws4.traditional_server;" vertex="1" parent="1">
          <mxGeometry x="700" y="695" width="28.85" height="50" as="geometry" />
        </mxCell>
      </root>
    </mxGraphModel>
  </diagram>
</mxfile>
